<svg width="45" height="45" viewBox="0 0 45 45" fill="none" xmlns="http://www.w3.org/2000/svg">
<path d="M36.5623 41.5999C36.5622 41.4919 36.5331 41.3859 36.4778 41.2931C36.4226 41.2003 36.3434 41.1241 36.2485 41.0725C33.8693 39.7937 31.6993 37.8364 30.7448 36.8538C30.603 36.7051 30.4137 36.6105 30.2097 36.5862C30.0056 36.562 29.7995 36.6097 29.6268 36.7211C25.2033 39.5705 19.8173 39.5722 15.3929 36.7255C15.2187 36.613 15.0106 36.5651 14.8047 36.5901C14.5989 36.6152 14.4083 36.7116 14.2662 36.8626C13.3196 37.854 11.1733 39.7893 8.77916 41.0593C8.68396 41.1072 8.60258 41.1786 8.54274 41.2667C8.4829 41.3549 8.44659 41.4568 8.43726 41.563C8.43013 41.6533 8.44385 41.7441 8.47736 41.8283C8.51088 41.9125 8.56329 41.9879 8.63056 42.0486C8.69783 42.1093 8.77815 42.1538 8.86533 42.1785C8.95251 42.2033 9.04421 42.2077 9.13335 42.1914C10.9659 41.824 12.7369 40.989 14.4244 40.0969C14.5326 40.0399 14.653 40.0097 14.7753 40.0088C14.8976 40.0079 15.0184 40.0363 15.1275 40.0917C17.4122 41.2532 19.9389 41.8587 22.502 41.8587C25.065 41.8587 27.5917 41.2532 29.8764 40.0917C29.9868 40.0358 30.1089 40.0071 30.2326 40.008C30.3563 40.0089 30.478 40.0394 30.5875 40.0969C32.2662 40.9759 34.0345 41.8187 35.8609 42.1887C35.9472 42.2053 36.0361 42.2025 36.1212 42.1804C36.2063 42.1583 36.2854 42.1176 36.3527 42.0611C36.42 42.0046 36.4739 41.9338 36.5105 41.8539C36.5471 41.774 36.5653 41.6869 36.564 41.599L36.5623 41.5999Z" fill="#0788FF"/>
<path d="M41.8982 21.7055C41.5915 20.9681 40.9402 20.3968 40.0613 20.0927L37.9686 19.2595V11.9575C37.9686 10.4657 37.376 9.03494 36.3211 7.98004C35.2662 6.92515 33.8355 6.33252 32.3436 6.33252H29.5311V5.62939C29.5311 4.69699 29.1607 3.80278 28.5014 3.14347C27.8421 2.48416 26.9479 2.11377 26.0155 2.11377H18.9843C18.0519 2.11377 17.1576 2.48416 16.4983 3.14347C15.839 3.80278 15.4686 4.69699 15.4686 5.62939V6.33252H12.6561C11.1643 6.33252 9.73355 6.92515 8.67866 7.98004C7.62377 9.03494 7.03114 10.4657 7.03114 11.9575V19.2656L4.95868 20.0909C4.08504 20.381 3.40916 20.9698 3.09979 21.7116C2.88446 22.2293 2.63836 23.03 2.98553 24.0372L2.99432 24.0636L7.0953 34.5612C7.24638 34.9469 7.51073 35.2778 7.85352 35.5103C8.19632 35.7428 8.6015 35.866 9.01571 35.8638C9.05965 35.8638 9.1036 35.8638 9.15018 35.8594C11.9029 35.6836 14.0721 34.3415 15.531 33.0812C17.6149 34.8803 20.0662 35.8638 22.4999 35.8638C24.9336 35.8638 27.3717 34.8794 29.4555 33.0776C30.9137 34.3397 33.0854 35.6854 35.8373 35.8594C36.2729 35.89 36.707 35.7808 37.0764 35.5479C37.4457 35.3149 37.7312 34.9702 37.8913 34.5639L41.9914 24.1049C42.2797 23.3938 42.2463 22.5439 41.8982 21.7055ZM23.6425 13.558L23.5423 13.5229C22.8635 13.3093 22.1354 13.3093 21.4566 13.5229L21.4056 13.5387L10.3253 17.9534C10.2719 17.9747 10.2142 17.9825 10.1571 17.9763C10.1 17.9701 10.0453 17.9499 9.99774 17.9177C9.95022 17.8854 9.91133 17.842 9.88446 17.7912C9.8576 17.7405 9.84358 17.6839 9.84364 17.6265V11.9575C9.84364 11.2116 10.14 10.4962 10.6674 9.96878C11.1948 9.44134 11.9102 9.14502 12.6561 9.14502H32.3436C33.0896 9.14502 33.8049 9.44134 34.3324 9.96878C34.8598 10.4962 35.1561 11.2116 35.1561 11.9575V17.6212C35.1562 17.6786 35.1422 17.7352 35.1153 17.786C35.0884 17.8367 35.0495 17.8801 35.002 17.9124C34.9545 17.9447 34.8998 17.9648 34.8427 17.971C34.7856 17.9773 34.7279 17.9694 34.6745 17.9481L23.6425 13.558Z" fill="#0788FF"/>
</svg>
