<svg width="47" height="47" viewBox="0 0 47 47" fill="none" xmlns="http://www.w3.org/2000/svg">
<path d="M7.34369 44.0591C6.95415 44.0591 6.58057 43.9043 6.30513 43.6289C6.02968 43.3535 5.87494 42.9799 5.87494 42.5903V6.2507C5.87504 5.86588 5.97595 5.48779 6.1676 5.15408C6.35926 4.82037 6.63498 4.54269 6.96732 4.34867C8.07806 3.70334 10.3161 2.93408 14.6874 2.93408C18.1032 2.93408 21.9238 4.28441 25.2946 5.47502C28.009 6.4343 30.5729 7.34033 32.3124 7.34033C34.5518 7.33346 36.7673 6.88099 38.83 6.00928C39.0812 5.90325 39.3547 5.86102 39.6262 5.88637C39.8976 5.91171 40.1586 6.00383 40.3858 6.15452C40.6131 6.30521 40.7995 6.50979 40.9284 6.75001C41.0574 6.99023 41.1249 7.25862 41.1249 7.53127V27.6678C41.1246 28.0247 41.0202 28.3738 40.8245 28.6723C40.6289 28.9708 40.3505 29.2059 40.0234 29.3486C39.2238 29.6984 36.3047 30.8403 32.3124 30.8403C30.0965 30.8403 27.3205 30.1849 24.3821 29.49C21.0793 28.7097 17.6644 27.9028 14.6874 27.9028C11.3029 27.9028 9.57068 28.4151 8.81244 28.7391V42.5903C8.81244 42.9799 8.6577 43.3535 8.38225 43.6289C8.10681 43.9043 7.73323 44.0591 7.34369 44.0591Z" fill="#FF7A00"/>
</svg>
