<svg width="44" height="44" viewBox="0 0 44 44" fill="none" xmlns="http://www.w3.org/2000/svg">
<path d="M39.703 18.5603C40.5065 17.7568 41.0041 16.9198 41.1802 16.0724C41.4123 14.9596 41.0694 13.8767 40.216 13.0234L30.9743 3.78338C29.7591 2.56908 27.6717 2.06635 25.4374 4.29471L25.2655 4.46658C25.2016 4.53043 25.1508 4.60626 25.1162 4.68972C25.0816 4.77318 25.0638 4.86264 25.0638 4.95299C25.0638 5.04334 25.0816 5.1328 25.1162 5.21626C25.1508 5.29972 25.2016 5.37555 25.2655 5.4394L38.5549 18.7322C38.6188 18.7966 38.6948 18.8478 38.7786 18.8827C38.8624 18.9176 38.9522 18.9356 39.043 18.9356C39.1337 18.9356 39.2236 18.9176 39.3074 18.8827C39.3912 18.8478 39.4672 18.7966 39.5311 18.7322L39.703 18.5603Z" fill="#00FFE0"/>
<path d="M21.4963 13.151L21.4826 13.3521C21.437 13.9691 20.8913 14.9978 20.2898 15.5985L4.06219 31.8235C3.10657 32.7782 2.64766 34.0209 2.76884 35.3211C2.87798 36.483 3.45118 37.6363 4.38274 38.567L5.4286 39.6128C6.51227 40.6957 7.81594 41.2457 9.08009 41.2457C9.657 41.2444 10.2278 41.1279 10.7591 40.903C11.2904 40.6781 11.7714 40.3493 12.1738 39.936L28.4023 23.711C29.0099 23.1034 30.0213 22.568 30.6513 22.519C32.1534 22.4056 34.3956 22.2371 36.477 21.1741C36.5249 21.1493 36.5663 21.1136 36.5978 21.0698C36.6293 21.026 36.6501 20.9754 36.6585 20.9221C36.6669 20.8688 36.6626 20.8143 36.646 20.763C36.6294 20.7117 36.6009 20.665 36.5629 20.6267L23.3483 7.41292C23.31 7.37456 23.2632 7.3458 23.2117 7.32898C23.1602 7.31217 23.1054 7.30777 23.0518 7.31615C22.9983 7.32452 22.9475 7.34544 22.9036 7.3772C22.8597 7.40895 22.8239 7.45064 22.7991 7.49885C21.7576 9.47456 21.6115 11.5302 21.4963 13.151ZM20.6413 25.7692C20.4172 26.0444 20.1135 26.2436 19.7717 26.3393C19.4299 26.435 19.0669 26.4225 18.7325 26.3037C18.3981 26.1848 18.1087 25.9653 17.904 25.6753C17.6994 25.3853 17.5895 25.0391 17.5895 24.6842C17.5895 24.3293 17.6994 23.9831 17.904 23.6931C18.1087 23.4031 18.3981 23.1836 18.7325 23.0648C19.0669 22.9459 19.4299 22.9334 19.7717 23.0291C20.1135 23.1248 20.4172 23.324 20.6413 23.5992C20.8908 23.9058 21.027 24.289 21.027 24.6842C21.027 25.0795 20.8908 25.4626 20.6413 25.7692Z" fill="#00FFE0"/>
</svg>
