<svg width="52" height="52" viewBox="0 0 52 52" fill="none" xmlns="http://www.w3.org/2000/svg">
<path d="M42.0865 9.90481C39.9778 7.77521 37.469 6.08325 34.7044 4.92614C31.9398 3.76902 28.9738 3.16955 25.9768 3.16218C22.9798 3.1548 20.0109 3.73966 17.2407 4.88315C14.4704 6.02664 11.9534 7.70623 9.83416 9.82543C7.71496 11.9446 6.03537 14.4617 4.89188 17.2319C3.74839 20.0022 3.16353 22.9711 3.17091 25.9681C3.17828 28.9651 3.77775 31.9311 4.93486 34.6957C6.09198 37.4603 7.78394 39.969 9.91354 42.0778C12.0223 44.2074 14.531 45.8993 17.2956 47.0565C20.0602 48.2136 23.0262 48.813 26.0232 48.8204C29.0202 48.8278 31.9891 48.2429 34.7594 47.0994C37.5297 45.9559 40.0467 44.2764 42.1659 42.1572C44.2851 40.038 45.9647 37.5209 47.1082 34.7507C48.2517 31.9804 48.8365 29.0115 48.8291 26.0145C48.8218 23.0175 48.2223 20.0515 47.0652 17.2869C45.9081 14.5223 44.2161 12.0135 42.0865 9.90481ZM33.3125 21.1163C33.7946 21.1163 34.2659 21.2593 34.6667 21.5271C35.0676 21.7949 35.38 22.1756 35.5645 22.621C35.749 23.0664 35.7972 23.5565 35.7032 24.0293C35.6091 24.5022 35.377 24.9365 35.0361 25.2774C34.6952 25.6183 34.2609 25.8504 33.7881 25.9445C33.3152 26.0385 32.8251 25.9902 32.3797 25.8058C31.9343 25.6213 31.5537 25.3088 31.2858 24.908C31.018 24.5072 30.875 24.0359 30.875 23.5538C30.8742 23.2335 30.9367 22.9161 31.0589 22.6201C31.1811 22.324 31.3607 22.0549 31.5872 21.8284C31.8137 21.6019 32.0827 21.4224 32.3788 21.3002C32.6749 21.178 32.9922 21.1155 33.3125 21.1163ZM18.6875 21.1163C19.1696 21.1163 19.6409 21.2593 20.0417 21.5271C20.4426 21.7949 20.755 22.1756 20.9395 22.621C21.124 23.0664 21.1722 23.5565 21.0782 24.0293C20.9841 24.5022 20.752 24.9365 20.4111 25.2774C20.0702 25.6183 19.6359 25.8504 19.1631 25.9445C18.6902 26.0385 18.2001 25.9902 17.7547 25.8058C17.3093 25.6213 16.9287 25.3088 16.6608 24.908C16.393 24.5072 16.25 24.0359 16.25 23.5538C16.2492 23.2335 16.3117 22.9161 16.4339 22.6201C16.5561 22.324 16.7357 22.0549 16.9622 21.8284C17.1887 21.6019 17.4577 21.4224 17.7538 21.3002C18.0499 21.178 18.3672 21.1155 18.6875 21.1163ZM26 29.2413C30.613 29.2413 34.5059 32.2364 35.7216 36.3334C35.8232 36.6909 35.9582 37.3663 35.9582 37.3663H16.0469C16.0469 37.3663 16.1799 36.6868 16.2835 36.3334C17.4799 32.2343 21.382 29.2413 26 29.2413Z" fill="#636363"/>
</svg>
