<svg width="56" height="56" viewBox="0 0 56 56" fill="none" xmlns="http://www.w3.org/2000/svg">
<path d="M16.4476 27.7367L18.8473 25.1882L20.1215 26.3914C28.1748 33.9776 36.2554 38.5932 45.7645 40.9459C47.0474 37.4459 47.1612 33.5937 46.0532 29.8356C44.5832 24.8492 41.1598 20.5048 36.1559 17.2728C31.7535 14.429 27.7777 13.7629 23.5679 13.0575C21.2579 12.6703 18.8648 12.27 16.2562 11.4792C11.4677 10.0267 6.44633 5.71074 6.39602 5.66809L3.65289 3.28809L3.49977 6.91715C3.48883 7.19715 3.23508 13.8701 5.05508 23.0795C6.97789 32.8139 10.5501 40.1256 15.6721 44.8046C19.8284 48.5989 25.2555 50.7 30.6488 50.7C31.6659 50.7006 32.6815 50.6249 33.6873 50.4735C38.2504 49.7823 42.0468 47.4909 44.1873 44.1571C34.3982 41.6109 26.0365 36.7689 17.7185 28.9365L16.4476 27.7367Z" fill="#1AF02F"/>
<path d="M51.1252 42.0266C49.2844 41.7433 47.5016 41.3879 45.7658 40.958C45.4086 41.9321 44.9645 42.8721 44.4391 43.7668C44.3582 43.9035 44.274 44.0391 44.1887 44.1725C46.2995 44.7192 48.4369 45.1572 50.5926 45.485L52.3229 45.7519L52.8544 42.2924L51.1252 42.0266Z" fill="#1AF02F"/>
</svg>
