<svg width="771" height="194" viewBox="0 0 771 194" fill="none" xmlns="http://www.w3.org/2000/svg">
    <path d="M248.15 32.8989L230.995 62.4627H221.404L204.345 33.0632V76.2605H189.1V1H202.936L226.248 42.0074L249.56 1H263.3V76.2605H248.15V32.8989H248.15Z" fill="#383838" stroke="#383838" stroke-width="1.876" stroke-miterlimit="2"/>
    <path d="M318.185 1H305.13L276.618 76.2612H292.654L311.634 24.0895L330.778 76.2612H346.813L318.185 1Z" fill="#383838" stroke="#383838" stroke-width="1.876" stroke-miterlimit="2"/>
    <path d="M311.767 76.2612L299.788 57.7161H323.644L311.767 76.2612Z" fill="#FF5353" stroke="#FF5353" stroke-width="1.876" stroke-miterlimit="2"/>
    <path d="M407.236 8.08212C402.682 3.38295 396.033 1 387.466 1H360.159V76.2605H375.308V15.3769H386.597C390.332 15.3769 393.322 16.2641 395.232 17.9528C397.125 19.603 398.08 22.1214 398.08 25.4112C398.08 28.5956 397.153 31.0656 395.329 32.7543C393.187 34.7323 389.8 35.736 385.246 35.736H382.702V50.1122H386.019C389.935 50.1122 393.553 49.6398 396.757 48.7133C400.174 47.7194 403.135 46.2047 405.577 44.2072C408.152 42.0944 410.14 39.4504 411.481 36.3438C412.833 33.2078 413.517 29.5993 413.517 25.6042C413.517 18.3873 411.346 12.3279 407.236 8.08212Z" fill="#383838" stroke="#383838" stroke-width="1.876" stroke-miterlimit="2"/>
    <path d="M457.964 1H444.909L416.397 76.2612H432.433L451.413 24.0895L470.556 76.2612H486.592L457.964 1Z" fill="#383838" stroke="#383838" stroke-width="1.876" stroke-miterlimit="2"/>
    <path d="M451.546 76.2612L439.566 57.7161H463.422L451.546 76.2612Z" fill="#FF5353" stroke="#FF5353" stroke-width="1.876" stroke-miterlimit="2"/>
    <path d="M189.1 192.25V116.892H213.8C218.914 116.892 223.874 117.866 228.544 119.796C233.08 121.668 237.151 124.36 240.634 127.785C244.138 131.23 246.896 135.263 248.817 139.76C250.805 144.42 251.818 149.389 251.818 154.522C251.818 159.655 250.805 164.625 248.817 169.294C246.896 173.801 244.147 177.834 240.644 181.297C237.151 184.742 233.089 187.445 228.554 189.326C223.884 191.266 218.914 192.25 213.8 192.25H189.1V192.25ZM213.8 177.1C219.947 177.1 225.698 174.766 230.011 170.51C234.305 166.274 236.668 160.591 236.668 154.522C236.668 148.463 234.305 142.809 230.02 138.592C225.718 134.366 219.957 132.04 213.8 132.04H204.248V177.1H213.8V177.1Z" fill="#383838" stroke="#383838" stroke-width="1.876" stroke-miterlimit="2"/>
    <path d="M300.472 116.892H287.417L258.905 192.153H274.941L293.921 139.981L313.064 192.153H329.1L300.472 116.892Z" fill="#383838" stroke="#383838" stroke-width="1.876" stroke-miterlimit="2"/>
    <path d="M294.054 192.153L282.074 173.608H305.93L294.054 192.153Z" fill="#FF5353" stroke="#FF5353" stroke-width="1.876" stroke-miterlimit="2"/>
    <path d="M388.979 189.808C384.415 187.878 380.314 185.109 376.793 181.588C373.271 178.066 370.511 173.965 368.572 169.401C366.574 164.673 365.552 159.646 365.552 154.474C365.552 149.303 366.565 144.276 368.572 139.548C370.502 134.983 373.271 130.883 376.793 127.361C380.314 123.839 384.415 121.079 388.979 119.14C393.707 117.133 398.734 116.12 403.905 116.12C416.719 116.12 428.635 122.479 435.785 133.141L423.203 141.574C418.881 135.119 411.664 131.269 403.905 131.269C397.712 131.269 391.883 133.681 387.493 138.062C383.103 142.442 380.7 148.28 380.7 154.474C380.7 160.669 383.112 166.497 387.493 170.887C391.873 175.268 397.701 177.679 403.905 177.679C411.625 177.679 418.823 173.85 423.155 167.443L435.708 175.923C428.558 186.509 416.671 192.828 403.905 192.828C398.734 192.828 393.707 191.816 388.979 189.808Z" fill="#383838" stroke="#383838" stroke-width="1.876" stroke-miterlimit="2"/>
    <path d="M449.752 121.716L464.901 116.892V192.153H449.752V121.716Z" fill="#383838" stroke="#383838" stroke-width="1.876" stroke-miterlimit="2"/>
    <path d="M486.371 192.25V116.892H511.071C516.185 116.892 521.145 117.866 525.815 119.796C530.35 121.668 534.422 124.36 537.905 127.785C541.408 131.23 544.167 135.263 546.088 139.76C548.075 144.42 549.088 149.389 549.088 154.522C549.088 159.655 548.075 164.625 546.088 169.294C544.167 173.801 541.417 177.834 537.914 181.297C534.422 184.742 530.36 187.445 525.824 189.326C521.155 191.266 516.185 192.25 511.071 192.25H486.371V192.25ZM511.071 177.1C517.217 177.1 522.969 174.766 527.282 170.51C531.575 166.274 533.939 160.591 533.939 154.522C533.939 148.463 531.575 142.809 527.291 138.592C522.988 134.366 517.228 132.04 511.071 132.04H501.519V177.1H511.071V177.1Z" fill="#383838" stroke="#383838" stroke-width="1.876" stroke-miterlimit="2"/>
    <path d="M597.743 116.892H584.688L556.176 192.153H572.212L591.192 139.981L610.335 192.153H626.371L597.743 116.892Z" fill="#383838" stroke="#383838" stroke-width="1.876" stroke-miterlimit="2"/>
    <path d="M591.324 192.153L579.345 173.608H603.201L591.324 192.153Z" fill="#FF5353" stroke="#FF5353" stroke-width="1.876" stroke-miterlimit="2"/>
    <path d="M639.717 192.25V116.892H664.417C669.531 116.892 674.491 117.866 679.161 119.796C683.697 121.668 687.768 124.36 691.251 127.785C694.754 131.23 697.513 135.263 699.434 139.76C701.422 144.42 702.434 149.389 702.434 154.522C702.434 159.655 701.422 164.625 699.434 169.294C697.513 173.801 694.763 177.834 691.26 181.297C687.768 184.742 683.706 187.445 679.17 189.326C674.501 191.266 669.531 192.25 664.417 192.25H639.717V192.25ZM664.417 177.1C670.564 177.1 676.315 174.766 680.628 170.51C684.922 166.274 687.285 160.591 687.285 154.522C687.285 148.463 684.922 142.809 680.637 138.592C676.335 134.366 670.574 132.04 664.417 132.04H654.865V177.1H664.417V177.1Z" fill="#383838" stroke="#383838" stroke-width="1.876" stroke-miterlimit="2"/>
    <path d="M720.536 192.153H769.262V178.065H720.536V192.153ZM720.536 161.855H769.262V147.478H720.536V161.855ZM720.536 116.892V131.269H769.262V116.892H720.536Z" fill="#383838" stroke="#383838" stroke-width="1.876" stroke-miterlimit="2"/>
    <path d="M58.7941 33.6401L48.3801 43.8001V56.6801V69.4801L66.2561 96.8401C76.0141 111.88 84.4601 124.12 84.8701 123.96C85.3621 123.8 93.5621 111.64 103.074 97.0001L120.54 70.3601V57.0801V43.8001L110.044 33.5601L99.6301 23.4001H84.4601H69.2901L58.7941 33.6401ZM105.124 37.5601L113.98 46.2001V57.2401V68.3601L99.8761 90.1201C92.1681 102.04 85.6081 112.12 85.2801 112.44C84.9521 112.84 77.9821 102.84 69.7821 90.3601L54.9401 67.6401V57.3201V47.0001L64.1241 38.0401L73.3901 29.0001H84.8701H96.3501L105.124 37.5601Z" fill="#FF5353"/>
    <path d="M74.784 48.4402L70.52 52.6802V58.2802V63.8802L74.866 68.0402L79.212 72.2002H84.952H90.692L94.546 68.3602L98.4 64.5202V58.1202V51.7202L94.464 47.9602C90.528 44.2002 90.528 44.2002 84.788 44.2002H79.048L74.784 48.4402ZM89.954 53.1602C93.48 56.5202 93.644 60.2802 90.446 63.5602C85.526 68.5202 77.08 65.1602 77.08 58.2002C77.08 55.8802 77.654 54.5202 79.294 52.8402C82.41 49.6402 86.346 49.8002 89.954 53.1602Z" fill="#FF5353"/>
    <path d="M133.496 53.2401L125.46 56.5201V59.9601V63.4001L129.806 61.7201C132.102 60.7601 134.562 59.8801 135.136 59.6401C135.956 59.3201 136.12 68.2001 135.956 103.8L135.71 148.36L120.212 154.68C111.684 158.12 104.55 161 104.468 161C104.304 161 104.058 148.12 103.976 132.36L103.73 103.8L100.86 108.2L97.9901 112.6L97.5801 136.76L97.1701 160.84L81.4261 154.44L65.6001 147.96V125.88V103.8L62.8941 99.8001L60.2701 95.8001L60.0241 121.88L59.8601 148.04L51.8241 151.32C47.4781 153.08 40.3441 155.96 36.0801 157.72L28.2901 160.92L28.0441 117.16C27.9621 93.0801 28.0441 73.0001 28.2081 72.5201C28.3721 72.0401 32.0621 70.2801 36.4081 68.5201L44.2801 65.4001V61.8801C44.2801 59.4801 43.9521 58.5201 43.2961 58.8401C42.7221 59.0801 37.5561 61.1601 31.7341 63.4801L21.3201 67.7201V119.16V170.6L23.2061 169.88C24.1901 169.48 33.5381 165.72 43.9521 161.48L62.8941 153.72L81.5901 161.4C91.9221 165.56 100.696 169 101.188 169C101.598 169 111.11 165.32 122.344 160.84L142.68 152.6V101.16C142.68 72.9201 142.434 49.8001 142.106 49.8801C141.696 49.8801 137.842 51.4001 133.496 53.2401Z" fill="#FF5353"/>
</svg>
