<svg width="597" height="577" viewBox="0 0 597 577" fill="none" xmlns="http://www.w3.org/2000/svg">
    <path d="M214.024 74.4332L176.115 111.073V157.521V203.681L241.188 302.348C276.71 356.586 307.455 400.727 308.948 400.15C310.739 399.573 340.589 355.721 375.215 302.925L438.795 206.855V158.964V111.073L400.587 74.1447L362.678 37.5052H307.455H252.233L214.024 74.4332ZM382.677 88.5697L414.915 119.728V159.541V199.642L363.573 278.114C335.514 321.101 311.634 357.452 310.44 358.606C309.246 360.048 283.874 323.986 254.024 278.98L199.995 197.046V159.829V122.613L233.427 90.3007L267.158 57.7002H308.948H350.738L382.677 88.5697Z" fill="#874FFF"/>
    <path d="M272.232 127.806L256.71 143.096V163.291V183.486L272.531 198.488L288.351 213.49H309.246H330.141L344.171 199.642L358.2 185.794V162.714V139.634L343.872 126.075C329.544 112.515 329.544 112.515 308.649 112.515H287.754L272.232 127.806ZM327.455 144.827C340.29 156.944 340.887 170.504 329.246 182.332C311.336 200.219 280.59 188.102 280.59 163.003C280.59 154.636 282.68 149.732 288.65 143.673C299.993 132.133 314.321 132.71 327.455 144.827Z" fill="#874FFF"/>
    <path d="M485.958 145.116L456.705 156.944V169.35V181.755L472.525 175.697C480.883 172.235 489.838 169.061 491.928 168.196C494.913 167.042 495.51 199.065 494.913 327.448L494.017 488.142L437.601 510.934C406.557 523.339 380.587 533.725 380.289 533.725C379.692 533.725 378.796 487.277 378.498 430.442L377.602 327.448L367.155 343.315L356.707 359.183L355.215 446.31L353.722 533.148L296.41 510.068L238.8 486.7V407.074V327.448L228.949 313.023L219.397 298.598L218.502 392.649L217.905 486.988L188.652 498.817C172.831 505.164 146.862 515.55 131.34 521.897L102.982 533.437L102.087 375.627C101.788 288.789 102.087 216.375 102.684 214.644C103.281 212.913 116.713 206.566 132.534 200.219L161.19 188.968V176.274C161.19 167.619 159.996 164.157 157.608 165.311C155.518 166.176 136.713 173.677 115.519 182.044L77.61 197.334V382.84V568.345L84.4755 565.749C88.0575 564.306 122.086 550.747 159.996 535.456L228.949 507.472L297.007 535.168C334.618 550.17 366.558 562.575 368.349 562.575C369.841 562.575 404.467 549.304 445.362 533.148L519.39 503.433V317.927C519.39 216.087 518.494 132.71 517.3 132.999C515.808 132.999 501.778 138.48 485.958 145.116Z" fill="#874FFF"/>
</svg>
